<svg width="335" height="56" viewBox="0 0 335 56" fill="none" xmlns="http://www.w3.org/2000/svg">
<path d="M121.728 51.8155C121.728 51.7095 121.216 51.625 120.572 51.625C119.798 51.625 119.321 51.5306 119.129 51.3393C118.972 51.1821 118.514 51.0536 118.111 51.0536C117.708 51.0536 117.35 50.9892 117.315 50.9107C117.21 50.6739 116.008 50.1011 115.617 50.1011C115.416 50.1011 115.251 50.0246 115.251 49.9312C115.251 49.8378 115.037 49.7076 114.775 49.6419C114.513 49.5762 114.299 49.4382 114.299 49.3354C114.299 49.2326 114.085 49.1486 113.823 49.1486C113.561 49.1486 113.346 49.0645 113.346 48.9617C113.346 48.8589 113.132 48.7211 112.87 48.6553C112.608 48.5896 112.394 48.4593 112.394 48.3659C112.394 48.2725 112.302 48.1961 112.19 48.1961C112.078 48.1961 111.866 48.089 111.72 47.958C111.09 47.3926 110.874 47.2436 110.687 47.2436C110.578 47.2436 110.489 47.115 110.489 46.9578C110.489 46.8007 110.395 46.6721 110.281 46.6721C110.167 46.6721 109.635 46.2435 109.1 45.7196C108.565 45.1957 108.016 44.7671 107.88 44.7671C107.743 44.7671 107.631 44.6418 107.631 44.4887C107.631 44.3356 107.289 43.8709 106.869 43.4559C106.45 43.041 106.107 42.6403 106.107 42.5656C106.107 42.4908 105.893 42.231 105.631 41.9882C105.369 41.7455 105.155 41.4529 105.155 41.3381C105.155 41.2234 104.941 40.9308 104.679 40.6881C104.417 40.4453 104.202 40.0637 104.202 39.8399C104.202 39.6054 104.082 39.4332 103.917 39.4332C103.739 39.4332 103.631 39.2533 103.631 38.9569C103.631 38.695 103.555 38.4807 103.461 38.4807C103.368 38.4807 103.238 38.2664 103.172 38.0044C103.106 37.7425 102.968 37.5282 102.865 37.5282C102.763 37.5282 102.679 37.3139 102.679 37.052C102.679 36.79 102.604 36.5757 102.512 36.5757C102.421 36.5757 102.291 36.2328 102.224 35.8137C102.157 35.3946 102.018 35.0517 101.914 35.0517C101.811 35.0517 101.726 34.7622 101.726 34.4082C101.726 34.0543 101.597 33.457 101.44 33.0809C101.283 32.7047 101.155 32.0085 101.155 31.5336C101.155 31.0588 101.069 30.6702 100.964 30.6702C100.844 30.6702 100.774 29.4003 100.774 27.2413C100.774 25.3554 100.847 23.8123 100.936 23.8123C101.026 23.8123 101.151 23.1919 101.215 22.4336C101.278 21.6754 101.419 21.0253 101.528 20.989C101.637 20.9527 101.726 20.5873 101.726 20.177C101.726 19.7666 101.802 19.4309 101.895 19.4309C101.988 19.4309 102.121 19.1308 102.19 18.7641C102.258 18.3974 102.397 18.0974 102.497 18.0974C102.597 18.0974 102.679 17.7545 102.679 17.3354C102.679 16.7851 102.758 16.5734 102.964 16.5734C103.121 16.5734 103.25 16.4448 103.25 16.2876C103.25 16.1305 103.336 16.0019 103.44 16.0019C103.545 16.0019 103.631 15.7876 103.631 15.5257C103.631 15.2637 103.715 15.0494 103.818 15.0494C103.921 15.0494 104.059 14.8351 104.124 14.5732C104.19 14.3112 104.311 14.0969 104.393 14.0969C104.475 14.0969 104.596 13.8826 104.662 13.6207C104.727 13.3587 104.865 13.1444 104.968 13.1444C105.071 13.1444 105.155 13.0525 105.155 12.9403C105.155 12.828 105.262 12.6167 105.393 12.4707C105.92 11.8833 106.107 11.6305 106.107 11.5081C106.107 11.4375 106.408 11.0967 106.774 10.7509C107.141 10.405 107.441 10.0306 107.441 9.91875C107.441 9.80687 107.57 9.71546 107.727 9.71546C107.884 9.71546 108.012 9.62353 108.012 9.51136C108.012 9.24761 108.497 8.76297 108.761 8.76297C108.873 8.76297 108.965 8.67104 108.965 8.55886C108.965 8.35273 109.428 7.81049 109.605 7.81049C109.657 7.81049 110.015 7.51343 110.4 7.15035C110.785 6.78726 111.262 6.43859 111.461 6.3755C111.66 6.31248 111.822 6.18087 111.822 6.08316C111.822 5.98543 111.942 5.90549 112.088 5.90549C112.234 5.90549 112.403 5.77693 112.463 5.61974C112.523 5.46259 112.747 5.334 112.959 5.334C113.172 5.334 113.346 5.24834 113.346 5.14351C113.346 5.03878 113.475 4.95302 113.632 4.95302C113.789 4.95302 113.918 4.869 113.918 4.76613C113.918 4.66334 114.132 4.52548 114.394 4.45975C114.656 4.39406 114.87 4.26378 114.87 4.17037C114.87 4.07696 115.085 4.00051 115.347 4.00051C115.643 4.00051 115.823 3.8925 115.823 3.71476C115.823 3.50839 116.035 3.42902 116.585 3.42902C117.004 3.42902 117.347 3.35289 117.347 3.25972C117.347 3.16661 117.647 3.03414 118.014 2.96536C118.38 2.89654 118.68 2.75842 118.68 2.65839C118.68 2.55843 119.092 2.47653 119.595 2.47653C120.098 2.47653 120.602 2.38342 120.716 2.2695C120.83 2.15569 121.619 2.01479 122.469 1.95652C123.319 1.89828 124.014 1.77713 124.014 1.68732C124.014 1.59748 125.129 1.52403 126.491 1.52403C128.015 1.52403 128.967 1.59734 128.967 1.71455C128.967 1.81928 129.356 1.90504 129.831 1.90504C130.305 1.90504 131.002 2.0336 131.378 2.19078C131.754 2.34795 132.437 2.47653 132.896 2.47653C133.354 2.47653 133.73 2.55548 133.73 2.65188C133.73 2.74842 133.987 2.88375 134.301 2.95278C134.616 3.02175 134.873 3.15722 134.873 3.25367C134.873 3.35005 135.173 3.42902 135.539 3.42902C135.906 3.42902 136.206 3.51304 136.206 3.61589C136.206 3.71868 136.42 3.85655 136.682 3.92229C136.944 3.98799 137.159 4.11824 137.159 4.21166C137.159 4.30507 137.373 4.38151 137.635 4.38151C137.897 4.38151 138.111 4.45794 138.111 4.55137C138.111 4.64478 138.325 4.77499 138.587 4.84073L139.064 4.96021V9.24278C139.064 11.9708 138.995 13.5254 138.873 13.5254C138.768 13.5254 138.683 13.4396 138.683 13.3349C138.683 13.2301 138.591 13.1444 138.479 13.1444C138.366 13.1444 138.155 13.0373 138.009 12.9062C137.437 12.393 137.17 12.1919 137.062 12.1919C137.001 12.1919 136.751 11.9776 136.509 11.7156C136.266 11.4537 135.884 11.2394 135.66 11.2394C135.437 11.2394 135.254 11.1554 135.254 11.0525C135.254 10.9497 135.039 10.8119 134.777 10.7461C134.516 10.6804 134.301 10.5501 134.301 10.4567C134.301 10.3633 134.124 10.2869 133.907 10.2869C133.69 10.2869 133.383 10.1583 133.226 10.0011C133.069 9.84398 132.732 9.7154 132.478 9.7154C132.223 9.7154 132.015 9.63943 132.015 9.54655C132.015 9.45359 131.629 9.31981 131.158 9.2491C130.687 9.17834 130.301 9.0401 130.301 8.94173C130.301 8.84341 129.786 8.7629 129.158 8.7629C128.523 8.7629 128.015 8.67828 128.015 8.57241C128.015 8.45755 127.221 8.38192 126.015 8.38192C124.808 8.38192 124.014 8.45745 124.014 8.57241C124.014 8.67714 123.533 8.7629 122.944 8.7629C121.924 8.7629 119.99 9.26992 119.855 9.57253C119.82 9.65119 119.542 9.7154 119.236 9.7154C118.93 9.7154 118.68 9.79942 118.68 9.90227C118.68 10.0051 118.466 10.1429 118.204 10.2087C117.942 10.2744 117.728 10.3953 117.728 10.4774C117.728 10.5595 117.514 10.6804 117.252 10.7461C116.99 10.8118 116.775 10.9498 116.775 11.0525C116.775 11.1553 116.686 11.2394 116.577 11.2394C116.39 11.2394 116.175 11.3884 115.544 11.9537C115.398 12.0847 115.218 12.1919 115.143 12.1919C114.82 12.1919 111.441 15.8459 111.441 16.1949C111.441 16.4043 111.314 16.5733 111.156 16.5733C110.999 16.5733 110.87 16.7019 110.87 16.8591C110.87 17.0162 110.784 17.1448 110.679 17.1448C110.575 17.1448 110.489 17.2664 110.489 17.4151C110.489 17.733 109.886 18.926 109.679 19.0181C109.601 19.0529 109.536 19.252 109.536 19.4603C109.536 19.6686 109.408 19.9676 109.251 20.1248C109.094 20.2819 108.965 20.7401 108.965 21.143C108.965 21.5459 108.885 21.9041 108.787 21.939C108.332 22.1019 107.728 29.7177 108.17 29.7177C108.268 29.7177 108.409 30.3606 108.483 31.1464C108.556 31.9323 108.695 32.5752 108.791 32.5752C108.887 32.5752 108.968 32.7681 108.971 33.0038C108.974 33.2395 109.103 33.5988 109.257 33.8022C109.411 34.0056 109.536 34.3699 109.536 34.6118C109.536 34.8537 109.613 35.0517 109.706 35.0517C109.8 35.0517 109.93 35.266 109.996 35.5279C110.061 35.7898 110.199 36.0042 110.302 36.0042C110.405 36.0042 110.489 36.2184 110.489 36.4804C110.489 36.7423 110.575 36.9566 110.679 36.9566C110.784 36.9566 110.87 37.0852 110.87 37.2424C110.87 37.3995 110.999 37.5281 111.156 37.5281C111.313 37.5281 111.441 37.6201 111.441 37.7322C111.441 37.8446 111.549 38.0558 111.68 38.2019C112.245 38.8322 112.394 39.0477 112.394 39.2346C112.394 39.3438 112.522 39.4331 112.68 39.4331C112.837 39.4331 112.965 39.525 112.965 39.6372C112.965 39.901 113.45 40.3856 113.714 40.3856C113.826 40.3856 113.918 40.4774 113.918 40.5897C113.918 40.8535 114.403 41.3381 114.666 41.3381C114.779 41.3381 114.87 41.4181 114.87 41.5157C114.87 41.6135 115.063 41.754 115.299 41.828C115.535 41.902 115.916 42.1649 116.147 42.4123C116.378 42.6597 116.699 42.8621 116.862 42.8621C117.024 42.8621 117.156 42.9385 117.156 43.0319C117.156 43.1253 117.371 43.2555 117.633 43.3213C117.895 43.387 118.109 43.5249 118.109 43.6277C118.109 43.7305 118.366 43.8146 118.68 43.8146C118.995 43.8146 119.252 43.8987 119.252 44.0014C119.252 44.1042 119.466 44.2421 119.728 44.3078C119.99 44.3735 120.204 44.4962 120.204 44.5803C120.204 44.6645 120.697 44.7726 121.3 44.8208C121.902 44.8689 122.738 45.0031 123.157 45.1189C124.333 45.4437 128.645 45.3986 129.473 45.0528C129.849 44.8956 130.446 44.767 130.8 44.767C131.154 44.767 131.444 44.6909 131.444 44.5977C131.444 44.5046 131.744 44.3721 132.11 44.3033C132.477 44.2345 132.777 44.0964 132.777 43.9964C132.777 43.8964 132.992 43.8145 133.253 43.8145C133.515 43.8145 133.73 43.7381 133.73 43.6447C133.73 43.5513 133.944 43.4211 134.206 43.3553C134.468 43.2896 134.682 43.1517 134.682 43.0489C134.682 42.9461 134.811 42.862 134.968 42.862C135.125 42.862 135.254 42.7856 135.254 42.6922C135.254 42.5988 135.468 42.4686 135.73 42.4028C135.992 42.3371 136.206 42.1992 136.206 42.0964C136.206 41.9936 136.335 41.9095 136.492 41.9095C136.649 41.9095 136.778 41.781 136.778 41.6238C136.778 41.446 136.958 41.3381 137.254 41.3381C137.523 41.3381 137.73 41.228 137.73 41.0845C137.73 40.9451 137.944 40.7163 138.206 40.5761C138.468 40.4359 138.683 40.2499 138.683 40.1629C138.683 40.0759 138.768 40.0046 138.873 40.0046C138.995 40.0046 139.064 41.5603 139.064 44.2908C139.064 47.0213 138.995 48.577 138.873 48.577C138.768 48.577 138.683 48.7056 138.683 48.8627C138.683 49.0199 138.518 49.1485 138.317 49.1485C137.926 49.1485 136.724 49.7213 136.619 49.9581C136.584 50.0368 136.37 50.104 136.143 50.1077C135.916 50.1107 135.516 50.237 135.254 50.3867C134.992 50.5365 134.585 50.662 134.349 50.6657C134.113 50.6687 133.92 50.7582 133.92 50.863C133.92 50.9677 133.679 51.0535 133.385 51.0535C133.091 51.0535 132.684 51.1793 132.48 51.3331C132.258 51.5016 131.675 51.6153 131.015 51.6189C130.413 51.6219 129.92 51.7107 129.92 51.8155C129.92 51.9366 128.428 52.006 125.824 52.006C123.221 52.006 121.728 51.9366 121.728 51.8155ZM11.5586 51.0872C11.2633 51.0303 11.2394 49.9222 11.2394 36.276V21.5264H14.8589H18.4783V36.29C18.4783 47.9699 18.4286 51.0551 18.2402 51.0609C16.4772 51.1156 11.8007 51.134 11.5586 51.0872ZM65.2933 51.0991L62.2929 51.0434V26.7598V2.47609H65.9124H69.5318V26.7646C69.5318 50.5809 69.1664 51.0531 69.1664 51.0531L68.8569 51.0786L68.5473 51.104C68.4078 51.132 66.9434 51.1294 65.2933 51.0991ZM172.544 51.0991L169.353 51.0438V26.7599V2.476H172.972H176.592V26.7645C176.592 41.3876 176.522 51.053 176.417 51.053C176.321 51.053 176.128 51.0758 175.988 51.1037C175.849 51.1315 174.299 51.1293 172.544 51.0991ZM203.202 51.0871C202.869 51.0234 202.746 50.6725 203.056 50.6725C203.152 50.6725 203.288 50.4153 203.357 50.101C203.426 49.7867 203.552 49.5295 203.636 49.5295C203.721 49.5295 203.847 49.2295 203.916 48.8628C203.985 48.4961 204.123 48.196 204.223 48.196C204.323 48.196 204.404 47.9817 204.404 47.7198C204.404 47.4578 204.481 47.2435 204.574 47.2435C204.668 47.2435 204.798 47.0292 204.864 46.7673C204.929 46.5054 205.067 46.291 205.17 46.291C205.273 46.291 205.357 46.0767 205.357 45.8148C205.357 45.5529 205.436 45.3386 205.532 45.3386C205.629 45.3386 205.764 45.0814 205.833 44.7671C205.902 44.4527 206.038 44.1956 206.134 44.1956C206.231 44.1956 206.309 43.9813 206.309 43.7193C206.309 43.4574 206.393 43.2431 206.496 43.2431C206.599 43.2431 206.737 43.0288 206.803 42.7668C206.868 42.5049 206.999 42.2906 207.092 42.2906C207.186 42.2906 207.262 42.113 207.262 41.896C207.262 41.6789 207.391 41.3728 207.548 41.2156C207.705 41.0585 207.833 40.7288 207.833 40.4831C207.833 40.2374 207.898 40.0078 207.976 39.9728C208.213 39.8675 208.786 38.6662 208.786 38.2747C208.786 38.0736 208.87 37.9091 208.973 37.9091C209.076 37.9091 209.213 37.6948 209.279 37.4329C209.345 37.1709 209.475 36.9566 209.569 36.9566C209.662 36.9566 209.738 36.7423 209.738 36.4804C209.738 36.2184 209.815 36.0042 209.908 36.0042C210.002 36.0042 210.132 35.7898 210.198 35.5279C210.263 35.266 210.401 35.0517 210.504 35.0517C210.607 35.0517 210.691 34.7608 210.691 34.4053C210.691 34.0065 210.8 33.7169 210.977 33.6493C211.134 33.5889 211.262 33.3226 211.262 33.0574C211.262 32.7922 211.348 32.5752 211.453 32.5752C211.558 32.5752 211.643 32.401 211.643 32.1882C211.643 31.9754 211.772 31.7519 211.929 31.6916C212.086 31.6312 212.215 31.3768 212.215 31.1261C212.215 30.8753 212.301 30.6702 212.405 30.6702C212.51 30.6702 212.596 30.4559 212.596 30.194C212.596 29.932 212.68 29.7177 212.783 29.7177C212.886 29.7177 213.023 29.5034 213.089 29.2415C213.155 28.9795 213.285 28.7652 213.379 28.7652C213.472 28.7652 213.548 28.5614 213.548 28.3123C213.548 28.0632 213.677 27.7527 213.834 27.6222C213.991 27.4917 214.12 27.1384 214.12 26.8369C214.12 26.5354 214.204 26.2887 214.307 26.2887C214.41 26.2887 214.547 26.0744 214.613 25.8125C214.679 25.5506 214.809 25.3362 214.903 25.3362C214.996 25.3362 215.072 25.1219 215.072 24.86C215.072 24.5981 215.149 24.3838 215.242 24.3838C215.336 24.3838 215.466 24.1695 215.532 23.9075C215.597 23.6456 215.735 23.4313 215.838 23.4313C215.941 23.4313 216.025 23.217 216.025 22.955C216.025 22.6931 216.104 22.4788 216.2 22.4788C216.297 22.4788 216.432 22.2216 216.501 21.9073C216.57 21.593 216.706 21.3358 216.802 21.3358C216.898 21.3358 216.977 21.1276 216.977 20.8732C216.977 20.6187 217.106 20.2819 217.263 20.1248C217.42 19.9676 217.549 19.6615 217.549 19.4444C217.549 19.2274 217.625 19.0498 217.719 19.0498C217.812 19.0498 217.942 18.8355 218.008 18.5736C218.074 18.3116 218.212 18.0973 218.314 18.0973C218.417 18.0973 218.501 17.883 218.501 17.6211C218.501 17.3591 218.58 17.1448 218.677 17.1448C218.773 17.1448 218.909 16.8877 218.978 16.5733C219.047 16.259 219.182 16.0018 219.278 16.0018C219.375 16.0018 219.454 15.7875 219.454 15.5256C219.454 15.2637 219.538 15.0493 219.641 15.0493C219.743 15.0493 219.881 14.835 219.947 14.5731C220.013 14.3112 220.143 14.0969 220.236 14.0969C220.33 14.0969 220.406 13.8825 220.406 13.6206C220.406 13.3587 220.488 13.1444 220.588 13.1444C220.688 13.1444 220.826 12.8443 220.895 12.4776C220.964 12.1109 221.096 11.8109 221.19 11.8109C221.283 11.8109 221.359 11.6058 221.359 11.355C221.359 11.1043 221.487 10.8498 221.645 10.7895C221.802 10.7292 221.93 10.4629 221.93 10.1976C221.93 9.93241 222.007 9.7154 222.1 9.7154C222.194 9.7154 222.324 9.50107 222.39 9.23915C222.455 8.97721 222.593 8.7629 222.696 8.7629C222.799 8.7629 222.883 8.54861 222.883 8.28667C222.883 8.02473 222.968 7.81043 223.073 7.81043C223.178 7.81043 223.264 7.63285 223.264 7.41581C223.264 7.19878 223.392 6.89263 223.55 6.73548C223.707 6.57831 223.835 6.25071 223.835 6.00746C223.835 5.76422 223.964 5.51587 224.121 5.45557C224.278 5.39523 224.407 5.12891 224.407 4.86368C224.407 4.59846 224.492 4.38146 224.597 4.38146C224.702 4.38146 224.788 4.16714 224.788 3.90522C224.788 3.60888 224.896 3.42896 225.074 3.42896C225.251 3.42896 225.359 3.24905 225.359 2.95272C225.359 2.69078 225.445 2.47647 225.55 2.47647C225.655 2.47647 225.74 2.27134 225.74 2.02062C225.74 1.76989 225.869 1.51539 226.026 1.45509C226.183 1.39476 226.312 1.16518 226.312 0.944858C226.312 0.51808 226.722 0 227.06 0C227.172 0 227.264 0.214308 227.264 0.476248C227.264 0.738173 227.343 0.952485 227.44 0.952485C227.536 0.952485 227.671 1.20966 227.741 1.52398C227.81 1.8383 227.945 2.09548 228.041 2.09548C228.138 2.09548 228.217 2.30978 228.217 2.57172C228.217 2.83366 228.293 3.04797 228.386 3.04797C228.479 3.04797 228.612 3.34799 228.68 3.71471C228.749 4.08142 228.887 4.38146 228.987 4.38146C229.087 4.38146 229.169 4.59577 229.169 4.85769C229.169 5.11965 229.253 5.33394 229.356 5.33394C229.459 5.33394 229.597 5.54826 229.663 5.8102C229.728 6.07212 229.858 6.28644 229.952 6.28644C230.045 6.28644 230.122 6.45095 230.122 6.652C230.122 7.04348 230.695 8.24491 230.931 8.35016C231.01 8.38502 231.074 8.6147 231.074 8.86042C231.074 9.10613 231.203 9.43577 231.36 9.59294C231.517 9.75009 231.646 10.0563 231.646 10.2733C231.646 10.4903 231.725 10.6679 231.821 10.6679C231.917 10.6679 232.053 10.9251 232.122 11.2394C232.191 11.5537 232.326 11.8109 232.423 11.8109C232.519 11.8109 232.598 12.0252 232.598 12.2871C232.598 12.5491 232.68 12.7634 232.78 12.7634C232.88 12.7634 233.018 13.0634 233.087 13.4301C233.156 13.7968 233.288 14.0969 233.381 14.0969C233.475 14.0969 233.551 14.3112 233.551 14.5731C233.551 14.835 233.63 15.0493 233.726 15.0493C233.822 15.0493 233.958 15.3065 234.027 15.6208C234.096 15.9352 234.231 16.1923 234.328 16.1923C234.424 16.1923 234.503 16.4066 234.503 16.6686C234.503 16.9305 234.587 17.1448 234.69 17.1448C234.793 17.1448 234.931 17.3591 234.996 17.6211C235.062 17.883 235.192 18.0973 235.286 18.0973C235.379 18.0973 235.456 18.3055 235.456 18.56C235.456 18.8144 235.584 19.1512 235.741 19.3083C235.899 19.4655 236.027 19.7717 236.027 19.9887C236.027 20.2057 236.106 20.3833 236.203 20.3833C236.299 20.3833 236.434 20.6405 236.503 20.9548C236.573 21.2691 236.708 21.5263 236.804 21.5263C236.901 21.5263 236.98 21.7406 236.98 22.0025C236.98 22.2645 237.056 22.4788 237.149 22.4788C237.242 22.4788 237.375 22.7788 237.443 23.1455C237.512 23.5122 237.65 23.8123 237.75 23.8123C237.85 23.8123 237.932 24.0266 237.932 24.2885C237.932 24.5504 238.011 24.7648 238.108 24.7648C238.204 24.7648 238.339 25.0219 238.408 25.3362C238.478 25.6506 238.613 25.9077 238.709 25.9077C238.806 25.9077 238.885 26.0853 238.885 26.3024C238.885 26.5194 239.013 26.8255 239.17 26.9827C239.328 27.1399 239.456 27.4695 239.456 27.7152C239.456 27.9609 239.52 28.1905 239.599 28.2255C239.806 28.3175 240.409 29.5105 240.409 29.8284C240.409 29.9771 240.494 30.0987 240.599 30.0987C240.704 30.0987 240.79 30.3157 240.79 30.5809C240.79 30.8462 240.918 31.1125 241.075 31.1728C241.252 31.2404 241.361 31.53 241.361 31.9288C241.361 32.2843 241.438 32.5752 241.531 32.5752C241.624 32.5752 241.755 32.7895 241.82 33.0514C241.886 33.3134 242.024 33.5277 242.127 33.5277C242.23 33.5277 242.314 33.7848 242.314 34.0992C242.314 34.4135 242.398 34.6707 242.5 34.6707C242.603 34.6707 242.741 34.885 242.807 35.1469C242.873 35.4088 243.003 35.6231 243.096 35.6231C243.19 35.6231 243.266 35.8375 243.266 36.0994C243.266 36.3613 243.343 36.5756 243.436 36.5756C243.529 36.5756 243.66 36.79 243.725 37.0519C243.791 37.3138 243.929 37.5281 244.032 37.5281C244.135 37.5281 244.219 37.726 244.219 37.9679C244.219 38.2099 244.344 38.5742 244.498 38.7776C244.652 38.981 244.781 39.3402 244.784 39.576C244.787 39.8117 244.876 40.0046 244.981 40.0046C245.085 40.0046 245.171 40.1822 245.171 40.3992C245.171 40.6162 245.3 40.9224 245.457 41.0796C245.614 41.2367 245.743 41.5735 245.743 41.8279C245.743 42.0824 245.819 42.2906 245.912 42.2906C246.006 42.2906 246.136 42.5049 246.202 42.7668C246.267 43.0288 246.405 43.2431 246.508 43.2431C246.611 43.2431 246.695 43.5002 246.695 43.8146C246.695 44.1289 246.779 44.3861 246.882 44.3861C246.985 44.3861 247.123 44.6004 247.188 44.8623C247.254 45.1242 247.384 45.3386 247.478 45.3386C247.571 45.3386 247.648 45.5529 247.648 45.8148C247.648 46.0767 247.729 46.291 247.829 46.291C247.929 46.291 248.068 46.5911 248.136 46.9578C248.205 47.3245 248.338 47.6245 248.431 47.6245C248.524 47.6245 248.6 47.8388 248.6 48.1008C248.6 48.3627 248.679 48.577 248.775 48.577C248.872 48.577 249.007 48.8342 249.076 49.1485C249.145 49.4628 249.281 49.72 249.377 49.72C249.474 49.72 249.553 49.9272 249.553 50.1804C249.553 50.4336 249.66 50.679 249.791 50.7258C250.518 50.9856 249.363 51.0969 246.122 51.0795C242.206 51.0585 242.077 51.027 241.826 50.0288C241.757 49.7542 241.624 49.5295 241.531 49.5295C241.438 49.5295 241.361 49.2295 241.361 48.8628C241.361 48.4961 241.277 48.196 241.174 48.196C241.071 48.196 240.934 47.9817 240.868 47.7198C240.802 47.4578 240.672 47.2435 240.578 47.2435C240.485 47.2435 240.409 47.0292 240.409 46.7673C240.409 46.5054 240.324 46.291 240.22 46.291C240.117 46.291 239.977 45.9481 239.91 45.529C239.843 45.1099 239.723 44.7671 239.643 44.7671C239.563 44.7671 239.444 44.5528 239.378 44.2908C239.312 44.0289 239.174 43.8146 239.072 43.8146C238.969 43.8146 238.885 43.6002 238.885 43.3383C238.885 43.0764 238.806 42.8621 238.709 42.8621C238.613 42.8621 238.477 42.6049 238.408 42.2906C238.339 41.9763 238.204 41.7191 238.108 41.7191C238.011 41.7191 237.932 41.4191 237.932 41.0523C237.932 40.6856 237.848 40.3856 237.745 40.3856C237.642 40.3856 237.505 40.1713 237.439 39.9094C237.373 39.6474 237.243 39.4331 237.149 39.4331C237.056 39.4331 236.98 39.2188 236.98 38.9569C236.98 38.6949 236.901 38.4806 236.804 38.4806C236.708 38.4806 236.572 38.2234 236.503 37.9091C236.434 37.5948 236.299 37.3376 236.203 37.3376C236.106 37.3376 236.027 37.1295 236.027 36.875C236.027 36.6205 235.899 36.2838 235.741 36.1266C235.584 35.9695 235.456 35.6704 235.456 35.4621C235.456 35.2538 235.391 35.0548 235.313 35.0199C235.076 34.9146 234.503 33.7132 234.503 33.3217C234.503 33.1207 234.427 32.9562 234.334 32.9562C234.241 32.9562 234.108 32.6561 234.039 32.2894C233.971 31.9227 233.833 31.6227 233.733 31.6227C233.633 31.6227 233.551 31.4084 233.551 31.1464C233.551 30.8845 233.474 30.6702 233.381 30.6702C233.287 30.6702 233.157 30.4559 233.091 30.194C233.026 29.932 232.888 29.7177 232.785 29.7177C232.682 29.7177 232.595 29.5248 232.592 29.2891C232.589 29.0533 232.46 28.6941 232.306 28.4907C232.153 28.2873 232.027 27.923 232.027 27.6811C232.027 27.4392 231.941 27.2412 231.836 27.2412C231.731 27.2412 231.646 27.0269 231.646 26.765C231.646 26.4687 231.538 26.2887 231.36 26.2887C231.182 26.2887 231.074 26.1088 231.074 25.8125C231.074 25.5506 230.989 25.3362 230.884 25.3362C230.779 25.3362 230.693 25.1383 230.693 24.8964C230.693 24.6545 230.567 24.2902 230.414 24.0868C230.26 23.8834 230.131 23.5241 230.128 23.2884C230.125 23.0526 230.036 22.8598 229.931 22.8598C229.827 22.8598 229.741 22.6856 229.741 22.4728C229.741 22.26 229.612 22.0365 229.455 21.9762C229.298 21.9158 229.169 21.6614 229.169 21.4107C229.169 21.1599 229.084 20.9548 228.979 20.9548C228.874 20.9548 228.788 20.7466 228.788 20.4922C228.788 20.2377 228.66 19.9009 228.502 19.7438C228.345 19.5866 228.217 19.3303 228.217 19.1741C228.217 18.8458 227.619 17.6516 227.407 17.5576C227.328 17.5227 227.263 17.3083 227.261 17.0813C227.258 16.6398 226.891 15.9103 226.886 16.3352C226.885 16.4662 226.764 16.5733 226.618 16.5733C226.472 16.5733 226.299 16.7876 226.233 17.0496C226.168 17.3115 226.03 17.5258 225.927 17.5258C225.824 17.5258 225.74 17.7401 225.74 18.0021C225.74 18.264 225.664 18.4783 225.57 18.4783C225.477 18.4783 225.347 18.6926 225.281 18.9546C225.215 19.2165 225.077 19.4308 224.975 19.4308C224.872 19.4308 224.788 19.6451 224.788 19.907C224.788 20.169 224.709 20.3833 224.612 20.3833C224.516 20.3833 224.38 20.6405 224.311 20.9548C224.242 21.2691 224.107 21.5263 224.011 21.5263C223.914 21.5263 223.835 21.7039 223.835 21.9209C223.835 22.1379 223.707 22.4441 223.549 22.6012C223.392 22.7584 223.264 23.0952 223.264 23.3496C223.264 23.6041 223.178 23.8123 223.073 23.8123C222.969 23.8123 222.883 24.0266 222.883 24.2885C222.883 24.5848 222.775 24.7648 222.597 24.7648C222.422 24.7648 222.311 24.9429 222.311 25.2251C222.311 25.4783 222.247 25.7141 222.168 25.749C221.932 25.8542 221.359 27.0557 221.359 27.4472C221.359 27.6482 221.282 27.8127 221.189 27.8127C221.096 27.8127 220.965 28.027 220.9 28.289C220.834 28.5509 220.696 28.7652 220.593 28.7652C220.49 28.7652 220.406 28.9795 220.406 29.2415C220.406 29.5034 220.33 29.7177 220.236 29.7177C220.143 29.7177 220.013 29.932 219.947 30.194C219.881 30.4559 219.743 30.6702 219.641 30.6702C219.538 30.6702 219.454 30.8845 219.454 31.1464C219.454 31.4084 219.372 31.6227 219.272 31.6227C219.172 31.6227 219.034 31.9227 218.965 32.2894C218.896 32.6561 218.764 32.9562 218.671 32.9562C218.577 32.9562 218.501 33.1732 218.501 33.4384C218.501 33.7036 218.373 33.97 218.216 34.0303C218.058 34.0906 217.93 34.3451 217.93 34.5958C217.93 34.8465 217.853 35.0517 217.76 35.0517C217.667 35.0517 217.536 35.266 217.471 35.5279C217.405 35.7898 217.267 36.0042 217.164 36.0042C217.061 36.0042 216.977 36.2184 216.977 36.4804C216.977 36.7423 216.898 36.9566 216.802 36.9566C216.706 36.9566 216.57 37.2138 216.501 37.5281C216.432 37.8425 216.297 38.0996 216.2 38.0996C216.104 38.0996 216.025 38.2772 216.025 38.4942C216.025 38.7113 215.896 39.0174 215.739 39.1746C215.582 39.3317 215.453 39.6685 215.453 39.923C215.453 40.1774 215.368 40.3856 215.263 40.3856C215.158 40.3856 215.072 40.5907 215.072 40.8415C215.072 41.0922 214.944 41.3467 214.787 41.407C214.629 41.4673 214.501 41.6908 214.501 41.9036C214.501 42.1165 214.415 42.2906 214.31 42.2906C214.206 42.2906 214.12 42.4957 214.12 42.7464C214.12 42.9972 213.991 43.2516 213.834 43.3119C213.677 43.3723 213.548 43.5957 213.548 43.8086C213.548 44.0214 213.463 44.1956 213.358 44.1956C213.253 44.1956 213.167 44.4126 213.167 44.6778C213.167 44.943 213.039 45.2094 212.882 45.2697C212.724 45.33 212.596 45.5844 212.596 45.8352C212.596 46.0859 212.519 46.291 212.426 46.291C212.333 46.291 212.202 46.5054 212.137 46.7673C212.071 47.0292 211.933 47.2435 211.83 47.2435C211.727 47.2435 211.643 47.4578 211.643 47.7198C211.643 47.9817 211.562 48.196 211.461 48.196C211.362 48.196 211.223 48.4961 211.155 48.8628C211.086 49.2295 210.953 49.5295 210.86 49.5295C210.767 49.5295 210.691 49.701 210.691 49.9105C210.691 50.12 210.51 50.4721 210.29 50.6928C209.916 51.0664 209.668 51.096 206.706 51.1214C204.955 51.1365 203.379 51.121 203.202 51.0871ZM0 5.81018V2.47645H14.8589H29.7177V5.81018V9.14388H14.8589H0V5.81018Z" fill="black"/>
<path d="M273.76 51H272.128V37.08C272.128 33.816 271.568 31.352 270.448 29.688C269.328 28.024 267.696 27.192 265.552 27.192C264.112 27.192 262.688 27.56 261.28 28.296C259.904 29 258.704 29.976 257.68 31.224C256.688 32.44 255.968 33.832 255.52 35.4V51H253.888V15.96H255.52V32.28C256.544 30.264 257.984 28.664 259.84 27.48C261.728 26.264 263.728 25.656 265.84 25.656C267.184 25.656 268.336 25.912 269.296 26.424C270.288 26.904 271.104 27.64 271.744 28.632C272.416 29.592 272.912 30.76 273.232 32.136C273.584 33.512 273.76 35.096 273.76 36.888V51ZM281.023 40.248V26.04H282.655V40.056C282.655 43.384 283.199 45.864 284.287 47.496C285.407 49.128 287.087 49.944 289.327 49.944C290.831 49.944 292.271 49.608 293.647 48.936C295.055 48.264 296.287 47.32 297.343 46.104C298.399 44.856 299.167 43.448 299.647 41.88V26.04H301.279V48.504C301.279 48.824 301.359 49.08 301.519 49.272C301.679 49.464 301.887 49.56 302.143 49.56V51C301.919 51 301.727 51 301.567 51C301.439 51 301.327 50.984 301.231 50.952C300.815 50.856 300.463 50.632 300.175 50.28C299.919 49.896 299.791 49.464 299.791 48.984L299.743 44.856C298.655 46.904 297.151 48.52 295.231 49.704C293.311 50.888 291.231 51.48 288.991 51.48C286.367 51.48 284.383 50.536 283.039 48.648C281.695 46.76 281.023 43.96 281.023 40.248ZM320.338 51.48C318.386 51.48 316.53 50.952 314.77 49.896C313.042 48.808 311.682 47.48 310.69 45.912V51H309.154V15.96H310.786V31.704C312.034 29.944 313.474 28.504 315.106 27.384C316.738 26.232 318.626 25.656 320.77 25.656C322.594 25.656 324.21 26.04 325.618 26.808C327.026 27.544 328.226 28.536 329.218 29.784C330.242 31.032 331.01 32.424 331.522 33.96C332.034 35.496 332.29 37.048 332.29 38.616C332.29 40.312 331.986 41.928 331.378 43.464C330.77 45 329.922 46.376 328.834 47.592C327.746 48.776 326.482 49.72 325.042 50.424C323.602 51.128 322.034 51.48 320.338 51.48ZM320.098 49.944C321.634 49.944 323.042 49.64 324.322 49.032C325.602 48.392 326.706 47.528 327.634 46.44C328.594 45.32 329.33 44.088 329.842 42.744C330.386 41.4 330.658 40.024 330.658 38.616C330.658 36.632 330.226 34.776 329.362 33.048C328.498 31.288 327.314 29.88 325.81 28.824C324.306 27.736 322.546 27.192 320.53 27.192C319.026 27.192 317.65 27.528 316.402 28.2C315.154 28.84 314.066 29.688 313.138 30.744C312.21 31.768 311.426 32.904 310.786 34.152V42.84C310.882 43.8 311.234 44.712 311.842 45.576C312.45 46.44 313.218 47.208 314.146 47.88C315.106 48.52 316.098 49.032 317.122 49.416C318.178 49.768 319.17 49.944 320.098 49.944Z" fill="black"/>
</svg>
